<svg height="512pt" viewBox="0 -31 512.00155 512" width="512pt" xmlns="http://www.w3.org/2000/svg"><path d="m434.679688 231.203125c4.328124 0 8.667968-1.5625 12.101562-4.730469l59.472656-54.839844c7.617188-7.023437 7.675782-19.0625.101563-26.15625l-58.542969-54.839843c-3.308594-3.101563-7.671875-4.984375-12.207031-4.984375-17-.070313-76.167969.050781-97.441407 0-3.785156 0-7.472656 1.046875-10.527343 3.28125l-55.355469 40.40625c-8.417969 6.140625-9.808594 18.175781-3.003906 26.074218l47.808594 55.496094c3.53125 4.097656 8.519531 6.199219 13.535156 6.199219 3.28125 0 6.570312-.914063 9.476562-2.742187v4.1875l-58.242187 36.519531c-8.574219 5.375-12.214844 16.015625-8.742188 25.515625l31.652344 86.496094c4.066406 11.113281 16.367187 16.824218 27.484375 12.757812 11.113281-4.066406 16.824219-16.371094 12.757812-27.484375l-25.683593-70.195313 40.238281-25.234374h30.980469l-11.425781 62.335937c-.710938 3.875-.339844 7.875 1.074218 11.550781l40.679688 105.835938c4.242187 11.027344 16.625 16.5625 27.691406 12.3125 11.042969-4.246094 16.554688-16.644532 12.3125-27.6875l-38.519531-100.210938 12.320312-64.136718c0-52.105469 0-5.582032 0-25.726563zm-.003907-103.941406 33.242188 31.140625-33.242188 30.65625zm-94.578125 55.640625-31.128906-36.132813 31.128906-22.71875zm0 0"/><path d="m424.585938 37.007812c0 20.4375-16.566407 37.007813-37.003907 37.007813-20.441406 0-37.007812-16.570313-37.007812-37.007813s16.566406-37.007812 37.007812-37.007812c20.4375 0 37.003907 16.570312 37.003907 37.007812zm0 0"/><path d="m182.863281 90.636719c-3.308593-3.101563-7.675781-4.984375-12.210937-4.984375-16.996094-.070313-76.167969.050781-97.441406 0-3.785157 0-7.472657 1.046875-10.527344 3.28125l-55.355469 40.402344c-8.417969 6.144531-9.808594 18.175781-3.003906 26.078124l47.808593 55.492188c5.722657 6.644531 15.476563 8.199219 23.011719 3.457031v4.1875l-58.242187 36.523438c-8.574219 5.375-12.21875 16.011719-8.742188 25.515625l31.648438 86.496094c4.070312 11.113281 16.371094 16.824218 27.488281 12.757812 11.113281-4.066406 16.824219-16.371094 12.757813-27.484375l-25.683594-70.199219 40.238281-25.230468h30.980469l-11.425782 62.332031c-.710937 3.878906-.339843 7.875 1.074219 11.554687l40.683594 105.832032c4.246094 11.050781 16.644531 16.558593 27.6875 12.3125 11.046875-4.246094 16.558594-16.640626 12.3125-27.6875l-38.519531-100.210938 12.324218-64.136719c0-52.105469 0-5.582031 0-25.726562h.003907c4.328125 0 8.667969-1.5625 12.101562-4.726563l59.46875-54.839844c7.621094-7.027343 7.679688-19.0625.105469-26.160156zm-107.71875 92.265625-31.128906-36.132813 31.128906-22.722656zm94.582031 6.15625v-61.796875l33.242188 31.140625zm0 0"/><path d="m159.636719 37.007812c0 20.4375-16.570313 37.007813-37.007813 37.007813s-37.007812-16.570313-37.007812-37.007813 16.570312-37.007812 37.007812-37.007812 37.007813 16.570312 37.007813 37.007812zm0 0"/></svg>