<?xml version="1.0"?>
<svg xmlns="http://www.w3.org/2000/svg" viewBox="0 0 512 512" width="512" height="512"><g id="Guitar"><g id="Glyph"><path d="M512,328a8,8,0,0,0-10.2-7.692l-112,32A8,8,0,0,0,384,360v88H352c-27.9,0-42.787,33.825-22.843,54.151,12.46,12.7,27.175,9.316,30.843,9.849a40.045,40.045,0,0,0,40-40V414.035l96-27.429V416H464c-27.9,0-42.787,33.825-22.843,54.151,12.46,12.7,27.175,9.316,30.843,9.849a40.045,40.045,0,0,0,40-40ZM400,397.394v-31.36l96-27.428v31.359Z"/><path d="M80,40V32a8,8,0,0,0-16,0V144H32A32.158,32.158,0,0,0,.006,175.384C-.341,193.658,14.834,208,32.54,208H40a40.045,40.045,0,0,0,40-40V104h24c20.073,0,26.209,8.21,39.653,26.2,1.172,1.157,2.977,5.8,8.348,5.8a8,8,0,0,0,8-8C160,20.351,86.767,43.286,80,40Z"/><circle cx="456" cy="280" r="8"/><path d="M482.1,261.563,456,248.577l-26.1,12.986a8.006,8.006,0,0,1-11.435-8.59l4.882-26.933-20.768-19.158a8.006,8.006,0,0,1,4.334-13.805l29.074-4L448.907,164.3a8,8,0,0,1,14.186,0l12.923,24.777,29.074,4a8.005,8.005,0,0,1,4.334,13.805L488.656,226.04l4.882,26.933A8.006,8.006,0,0,1,482.1,261.563Z"/><path d="M328.285,183.714c-56.84-56.839-153.111-33.836-178.623,41.714a9.906,9.906,0,0,1-9.51,6.572A140,140,0,1,0,140,512C217.2,512,280,449.2,280,372c.032-.1-.238-7.362,6.571-9.662C362.683,336.639,384.765,240.2,328.285,183.714ZM98.648,378.054l80-72a8,8,0,0,1,10.7,11.892C106.987,391.043,109.8,392,104,392A8.012,8.012,0,0,1,98.648,378.054Zm35.009,91.6a8,8,0,0,1-11.314,0l-80-80a8,8,0,0,1,11.314-11.313l80,80A8,8,0,0,1,133.657,469.656Zm79.695-127.71C130.987,415.043,133.8,416,128,416a8.012,8.012,0,0,1-5.355-13.946l80-72a8,8,0,0,1,10.7,11.892ZM252,312a52,52,0,1,1,52-52A52.059,52.059,0,0,1,252,312Z"/><path d="M381.232,90.545c-23.721,23.843-42.9,43-58.4,58.423a8,8,0,0,0-.062,11.277l30.063,30.591a8,8,0,0,0,11.362.05c27.917-27.879,46.541-46.261,58.963-58.553a8,8,0,0,0,.061-11.308c-11.388-11.512-23.688-23.642-30.7-30.544A8,8,0,0,0,381.232,90.545Z"/><path d="M461.964,2.329a7.952,7.952,0,0,0-11.246,0C392.659,61.56,392,58.423,392,64.341c0,5.874,1.427,3.569,50.036,53.33a7.952,7.952,0,0,0,11.246,0C511.341,58.44,512,61.576,512,55.659,512,49.785,510.573,52.09,461.964,2.329ZM456,64a8,8,0,1,1,8-8A8,8,0,0,1,456,64Z"/></g></g></svg>
