<svg height="448pt" viewBox="-64 0 448 448.00069" width="448pt" xmlns="http://www.w3.org/2000/svg"><path d="m63.769531 232v-32h-16v24c0 4.417969 3.582031 8 8 8zm0 0"/><path d="m67.769531 96h184c15.460938 0 28-12.535156 28-28s-12.539062-28-28-28h-38.351562c-3.539063 0-6.652344-2.324219-7.664063-5.710938-6.066406-20.34375-24.773437-34.289062-46-34.289062-21.230468 0-39.9375 13.945312-46 34.289062-1.007812 3.375-4.109375 5.695313-7.632812 5.710938h-38.351563c-15.464843 0-28 12.535156-28 28s12.535157 28 28 28zm0 0"/><path d="m255.769531 232h8c4.417969 0 8-3.582031 8-8v-24h-16zm0 0"/><path d="m319.527344 448c-3.257813-49.988281-33.496094-94.226562-78.886719-115.414062l-34.800781 40.613281c-1.519532 1.777343-3.734375 2.800781-6.070313 2.800781h-80v72h64v-48c0-4.417969 3.582031-8 8-8h48c4.417969 0 8 3.582031 8 8v48zm0 0"/><path d="m71.769531 112h176v72h-176zm0 0"/><path d="m103.769531 448v-80c0-4.417969 3.582031-8 8-8h84.320313l28.734375-33.542969c-2.289063-.71875-4.558594-1.480469-6.894531-2.082031-34.363282 26.171875-81.96875 26.171875-116.328126 0-57.113281 14.785156-98.160156 64.730469-101.601562 123.625zm0 0"/><path d="m199.769531 408h32v40h-32zm0 0"/><path d="m239.769531 240v-40h-160v48c-.066406 21.230469 8.367188 41.609375 23.414063 56.585938 1.703125 1.714843 3.496094 3.339843 5.367187 4.871093l.105469.046875c29.636719 24.628906 72.617188 24.628906 102.257812 0 18.328126-15.15625 28.914063-37.71875 28.855469-61.503906zm0 0"/></svg>