<svg id="Capa_1" enable-background="new 0 0 512 512" height="512" viewBox="0 0 512 512" width="512" xmlns="http://www.w3.org/2000/svg"><path d="m241 361h30v30h-30z"/><path d="m346 361h-45v60h-90v-60h-45v151h180z"/><path d="m297.433 331 153.567-127.969v-7.031c0-107.52-87.48-196-195-196s-195 88.48-195 196v7.031l153.567 127.969zm93.567-152.432c10.635 0 20.292 5.2 26.276 13.515l-102.865 85.717 47.741-80.764c5.374-11.068 16.303-18.468 28.848-18.468zm-120 20.684c4.86-12.371 16.602-20.684 30-20.684 11.807 0 22.471 6.357 28.169 16.333l-58.169 96.946zm-60-20.684c13.242 0 25.034 7.998 30 20.098v93.179l-58.169-96.943c5.698-9.976 16.362-16.334 28.169-16.334zm-116.276 13.515c5.984-8.315 15.641-13.515 26.276-13.515 12.545 0 23.474 7.399 28.848 18.468l47.743 80.764z"/></svg>